<svg width="198" height="212" fill="none" xmlns="http://www.w3.org/2000/svg"><path d="M94.964 41.838V1h101.331v145.323H88v-35.81h60.825V94.065h-53.86V80.05s58.036 4.06 74.865 0c14.507-3.499 18.921-49.334 0-38.211-18.921 11.122-74.866 0-74.866 0z" fill="#FFC554" stroke="#000" stroke-width="2"/><circle cx="1.878" cy="1.878" r="1.878" transform="matrix(-1 0 0 1 141.736 13.06)" fill="#000"/><circle cx="1.878" cy="1.878" r="1.878" transform="matrix(-1 0 0 1 106.026 13.06)" fill="#000"/><path d="M172.275 184.327l-6.853 8.331 3.567 2.79 3.286-3.609 9.153 6.784 2.643-3.211-9.008-6.821 4.005-4.546 9.282 7.008 2.812-3.049-9.144-7.375 2.57-2.851-3.918-3.124-6.129 7.079c-8.538-8.177-16.756-17.132-24.764-17.826-4.236-7.327-16.788-9.414-19.109-6.519l-.048 6.374c4.333-5.422 11.31-2.558 14.861.788-3.38 1.748-8.456 5.975-7.751 11.589.501 3.989 6.99 9.508 12.541 3.62 2.008-2.13 2.791-4.27 1.46-10.717 8.36 2 15.49 10.497 20.544 15.285z" fill="#DCEDFF"/><path d="M146.978 169.312c1.845-.752 2.889-.716 4.753-.27m-4.753.27c-2.003 1.416-6.066 6.851-2.658 6.877 2.606.02 2.889-3.708 2.658-6.877zm25.297 22.527l-3.286 3.609-3.567-2.79 6.853-8.331c-5.054-4.788-12.184-13.285-20.544-15.285m20.544 22.797l9.153 6.784 2.643-3.211-9.008-6.821m-2.788 3.248l2.788-3.248m0 0l4.005-4.546m2.95-3.416l2.57-2.851-3.918-3.124-6.129 7.079c-8.538-8.177-16.756-17.132-24.764-17.826m32.241 16.722l9.144 7.375-2.812 3.049-9.282-7.008m2.95-3.416l-2.95 3.416m-27.337-15.003c1.331 6.447.548 8.587-1.46 10.717-5.551 5.888-12.04.369-12.541-3.62-.705-5.614 4.371-9.841 7.751-11.589m0 0c-3.551-3.346-10.528-6.21-14.861-.788l.048-6.374c2.321-2.895 14.873-.808 19.109 6.519m-4.296.643c1.597-.784 2.539-.796 4.296-.643" stroke="#000" stroke-width="2"/><path d="M147.66 169.087c-2.594.659-6.358 6.227-3.695 7.412 2.662 1.185 5.363-4.341 3.695-7.412z" fill="#DCEDFF" stroke="#000" stroke-width="2"/><path d="M129.994 194.796v-70.722H101.56V112H31.052v12.074H1v22.153s51.581 16.168 98.017 2.999c10.578-2.999 6.978 12.572 0 17.366-10.929 7.508-98.017 0-98.017 0v28.204h128.994z" fill="#FF8D7C" stroke="#000" stroke-width="2"/><ellipse cx="35.794" cy="116.41" rx="1.809" ry="1.693" transform="rotate(-.272 35.794 116.41)" fill="#000"/><ellipse cx="69.894" cy="116.248" rx="1.809" ry="1.693" transform="rotate(-.272 69.894 116.248)" fill="#000"/></svg>