<svg width="186" height="116" fill="none" xmlns="http://www.w3.org/2000/svg"><path d="M1.64 114.271V15.295h28.843V1.293H87.42v14.002h52.922v34.846s-12.567 6.088-56.929-16.604-10.951 68.422 7.77 68.422h49.159v12.312H1.639z" fill="#FFC554" stroke="#000" stroke-width="2"/><path d="M46.001 114.271V15.295h28.844V1.293h56.936v14.002h52.923v40.073S158.03 99.262 106.087 69.79c-51.943-29.473-20.967 32.169-2.246 32.169h80.863v12.312H46.001z" fill="#FFC554" stroke="#000" stroke-width="2"/><path d="M12.87 114.271V15.295h28.844V1.293H98.65v14.002h52.922v40.073s-14.039 14.19-58.4-8.502c-44.363-22.692-9.175 56.762 9.545 56.762 16.939 0 48.855-1.669 48.855-1.669v12.312H12.87z" fill="#FFC554" stroke="#000" stroke-width="2"/><path d="M35.332 114.271V15.295h28.844V1.293h56.936v14.002h52.922v40.073s-20.777 32.432-69.07 6.508c-48.293-25.925-14.509 41.479 4.211 41.479 16.939 0 64.859-1.396 64.859-1.396v12.312H35.332z" fill="#FFC554" stroke="#000" stroke-width="2"/><path d="M24.1 114.271V15.295h28.845V1.293h56.936v14.002h52.922v40.073s-12.567 22.692-56.929 0-10.952 46.591 7.769 46.591h49.16v12.312H24.101z" fill="#FFC554" stroke="#000" stroke-width="2"/><ellipse cx="1.947" cy="1.892" rx="1.947" ry="1.892" transform="matrix(-1 0 0 1 105.47 6.383)" fill="#000"/><ellipse cx="1.947" cy="1.892" rx="1.947" ry="1.892" transform="matrix(-1 0 0 1 68.776 6.383)" fill="#000"/></svg>