<svg width="154" height="301" fill="none" xmlns="http://www.w3.org/2000/svg"><path d="M66.704 192.879c-8.74 6.9-17.778 29.401-14.494 48.07C56 262.5 75.5 259 75.5 300m38.511-248.86C118.06 93.462 165.739 129.4 146.5 175c-32.489 77 13.759 68-3.5 125" stroke="#000" stroke-width="1.38"/><path d="M63.757 164.72l9.864 2.737-1.466-42.963 20.673 12.349-12.13 32.578 7.076 1.964 22.027-23.187 10.463 20.572-35.22 7.569 28.197 25.797-17.791 13.288-13.137-34.13-5.461 9.908 12.816 31.171-27.744-5.494 5.277-25.031-19.455 17.637-14.114-6.804 15.192-19.647-28.718 14.27 4.783-34.975 22.324 13.02-11.934-32.214 14.198-5.3 3.863 31.604 1.708-22.737 9.63-12.082-.92 30.1z" fill="#FF8D7C"/><path d="M87.774 171.385l-7.077-1.964m7.077 1.964l-2.73 4.954m2.73-4.954l22.027-23.187 10.463 20.572-35.22 7.569m-11.423-8.882l-14.153-3.928-6.128 5.91m20.28-1.982l-1.465-42.963 20.673 12.349-12.13 32.578m-7.077-1.964l7.076 1.964m4.346 6.918l28.198 25.797-17.791 13.288-13.137-34.13m2.73-4.955l-2.73 4.955m0 0l-5.461 9.908m0 0l-2.3 4.172-7.35-3.526m9.65-.646l12.816 31.171-27.744-5.494 5.277-25.031m0 0l-19.455 17.637-14.114-6.804 15.192-19.647m18.377 8.814l-18.377-8.814m0 0l-6.399-3.068 4.788-4.617m1.61 7.685l-28.717 14.27 4.783-34.975 22.324 13.02m0 0l-11.934-32.214 14.198-5.3 3.863 31.604m-6.127 5.91l6.127-5.91m0 0l1.708-22.737 9.63-12.082-.928 30.34" stroke="#000" stroke-width="1.38"/><path d="M108.897 33.727l5.182-4.723-25.455-14.805 14.695-7.491 14.477 18.906 3.718-3.388L116.09 1l15.746 1.427-8.444 23.188 25.238-6.957 1.225 15.161-24.584-4.816 3.758 6.778 22.75 3.925-13.296 14.09-12.596-12.181 3.142 17.71-9.09 5.709-5.86-15.971-2.187 21.857-18.544-15.518 15.686-8.205L86 42.38l2.1-10.167 19.738 9.275-12.566-9.275-3.499-9.988 17.124 11.501z" fill="#FF8D7C"/><path d="M121.514 22.226l-3.718 3.389m3.718-3.39l1.878 3.39m-1.878-3.39L116.09 1l15.746 1.427-8.444 23.188m-9.313 3.389l-7.436 6.777 1.195 5.708m6.241-12.485L88.624 14.198l14.695-7.491 14.477 18.906m-3.717 3.39l3.717-3.39m5.596 0l25.238-6.956 1.225 15.161-24.584-4.816m-1.879-3.389l1.879 3.39m0 0l3.758 6.777m0 0l1.582 2.854-4.724 2.98m3.142-5.834l22.75 3.925-13.296 14.09-12.596-12.181m0 0l3.142 17.71-9.09 5.709-5.86-15.971m11.808-7.448l-11.808 7.448m0 0l-4.112 2.593-.933-4.46m5.045 1.867l-2.187 21.857-18.544-15.518 15.686-8.205m0 0L86 42.38l2.1-10.167 19.738 9.275m1.196 5.708l-1.196-5.708m0 0l-12.566-9.275-3.499-9.988 17.261 11.593" stroke="#000" stroke-width="1.38"/></svg>