<svg width="136" height="513" fill="none" xmlns="http://www.w3.org/2000/svg"><path d="M109.414 512.642c12.108-75.985 20.04-88.928 10.02-101.453-10.02-12.525-16.283 12.942-15.448-41.751.668-43.754 3.897-52.188 5.428-50.935" stroke="#000" stroke-width="2"/><path d="M100.99 310.053l-1.65-5.992-21.877 14.288-.02-14.641 20.714-3.946-1.184-4.299-18.915-4.158 7.435-11.919 14.906 15.937 4.627-22.788 12.449 5.071-13.65 17.578 6.852-.279 12.212-16.48 5.787 16.161-14.657 5.135 15.229 4.567.86 9.484-14.946-1.717 16.364 10.445-19.671 8.523-.186-15.71-13.029 16.348-7.178-5.716 15.226-11.959-12.352 6.27-9.28-1.206 15.934-8.997z" fill="#FF8D7C"/><path d="M96.973 295.463l1.184 4.299m-1.184-4.299l3.426-.14m-3.426.14l-18.915-4.158 7.435-11.919 14.906 15.937m-1.059 8.738l2.367 8.598 4.981 1.327m-7.348-9.925l-21.877 14.288-.02-14.641 20.714-3.946m1.183 4.299l-1.183-4.299m2.242-4.439l4.627-22.788 12.449 5.071-13.65 17.578m-3.426.139l3.426-.139m0 0l6.852-.279m0 0l2.885-.117.457 4.933m-3.342-4.816l12.212-16.48 5.787 16.161-14.657 5.135m0 0l15.229 4.567.86 9.484-14.946-1.717m-1.143-12.334l1.143 12.334m0 0l.398 4.294-3.891-1.036m3.493-3.258l16.364 10.445-19.671 8.523-.186-15.71m0 0L98.64 331.661l-7.178-5.716 15.226-11.959m4.981 1.327l-4.981-1.327m0 0l-12.352 6.27-9.28-1.206 16.061-9.069" stroke="#000" stroke-width="2"/><path d="M71.064 32.595l5.982 1.687-.918-26.114L88.67 15.72l-7.332 19.771 4.291 1.21 13.34-14.04 6.357 12.526-21.349 4.519 17.114 15.742-10.777 8.035-7.989-20.773-3.304 6.01 7.792 18.973-16.825-3.403 3.183-15.2-11.784 10.674-8.562-4.168 9.197-11.905-17.401 8.606 2.875-21.244 13.544 7.964-7.257-19.605 8.605-3.189L64.75 35.44l1.02-13.814 5.83-7.32-.537 18.29z" fill="#FF8D7C"/><path d="M85.63 36.701l-4.292-1.21m4.291 1.21l-1.652 3.005M85.63 36.7l13.34-14.04 6.357 12.526-21.349 4.519m-6.931-5.425l-8.584-2.42-3.71 3.578m12.294-1.157l-.918-26.114L88.67 15.72l-7.332 19.771m-4.292-1.21l4.291 1.21m2.64 4.215l17.114 15.742-10.777 8.035-7.989-20.773m1.652-3.004l-1.652 3.004m0 0l-3.304 6.01m0 0l-1.391 2.53-4.46-2.16m5.851-.37l7.792 18.973-16.825-3.403 3.183-15.2m0 0L61.387 59.764l-8.562-4.168 9.197-11.905m11.149 5.4l-11.149-5.4m0 0l-3.881-1.88 2.9-2.794m.981 4.674l-17.401 8.606 2.875-21.244 13.544 7.964m0 0l-7.257-19.605 8.605-3.189L64.75 35.44m-3.71 3.578l3.71-3.578m0 0l1.02-13.814 5.83-7.32-.542 18.437" stroke="#000" stroke-width="2"/><path d="M61.634 427.524c0-7.097-45.508-109.803-27.973-150.719m0 0c17.536-40.915 59.286-91.433 53.441-132.766-5.845-41.333-25.468-40.498-23.38-54.693 1.67-11.356 5.706-30.06 7.515-37.993M33.662 276.805c-4.871-4.175-14.28-15.531-12.943-27.555 1.336-12.024 6.68-24.494 9.185-29.225" stroke="#000" stroke-width="2"/><path d="M24.947 205.75l5.167-3.454L9.66 186.037l13.888-4.634 10.274 18.415 3.707-2.478-2.015-19.262 13.654 3.3-10.427 19.17 23.085-2.792-.889 13.413-20.984-7.414 2.424 6.415 19.489 6.396-13.514 10.585-9.492-12.291.465 15.892-8.73 3.805-3.08-14.725-4.756 18.821L8.47 222.671l14.851-5.128L3.7 210.331l3.163-8.614 16.148 10.681-9.844-9.746-1.78-9.188 13.56 12.286z" fill="#FF8D7C"/><path d="M37.528 197.34l-3.707 2.478m3.707-2.478l1.212 3.208m-1.212-3.208l-2.015-19.262 13.654 3.3-10.427 19.17m-8.626 1.748l-7.414 4.956.31 5.146m7.104-10.102L9.66 186.037l13.888-4.634 10.274 18.415m-3.707 2.478l3.707-2.478m4.92.73l23.084-2.792-.889 13.413-20.984-7.414m-1.212-3.207l1.212 3.207m0 0l2.424 6.415m0 0l1.021 2.701-4.538 1.989m3.517-4.69l19.489 6.396-13.514 10.585-9.492-12.291m0 0l.465 15.892-8.73 3.805-3.08-14.725m11.345-4.972l-11.345 4.972m0 0l-3.95 1.731-.243-4.02m4.193 2.289l-4.756 18.821L8.47 222.671l14.851-5.128m0 0L3.7 210.331l3.163-8.614 16.148 10.681m.31 5.145l-.31-5.145m0 0l-9.844-9.746-1.78-9.188 13.668 12.385" stroke="#000" stroke-width="2"/></svg>