<svg width="459" height="744" fill="none" xmlns="http://www.w3.org/2000/svg"><path d="M231.001 325c-19 15-43.427 65.053-31.51 104.5 14.499 48 70.999 51 80.999 129 8 62.4 3.334 144.667 0 166.5m93.395-614c.332 38.931 3.916 80.411 9.105 102 6.486 26.986 24.822 63.014 21.828 105.926-2.993 42.913-48.313 77.903-41.328 161.074 6.985 83.171 26.708 59.387 25.861 115.509-.779 51.689.139 123.682.139 128.991" stroke="#000" stroke-width="3"/><path d="M224.595 263.782l21.443 5.952-3.187-93.399 44.941 26.845-26.371 70.823 15.383 4.27 47.887-50.407 22.745 44.722-76.567 16.455 61.3 56.081-38.677 28.885-28.559-74.196-11.872 21.54 27.861 67.765-60.313-11.944 11.473-54.415-42.294 38.341-30.684-14.792 33.026-42.711-62.43 31.021 10.397-76.032 48.531 28.303-25.943-70.031 30.867-11.521 8.397 68.705 3.712-49.429 20.936-26.266-2.002 65.435z" fill="#FF8D7C"/><path d="M276.804 278.273l-15.383-4.27m15.383 4.27l-5.935 10.77m5.935-10.77l47.887-50.407 22.745 44.722-76.567 16.455m-24.831-19.309l-30.767-8.539-13.322 12.847m44.089-4.308l-3.187-93.399 44.941 26.845-26.371 70.823m-15.383-4.269l15.383 4.269m9.448 15.04l61.3 56.081-38.677 28.885-28.559-74.196m5.936-10.77l-5.936 10.77m0 0l-11.872 21.54m0 0l-4.998 9.07-15.981-7.664m20.979-1.406l27.861 67.765-60.313-11.944 11.473-54.415m0 0L189.788 361.1l-30.684-14.792 33.026-42.711m39.952 19.162l-39.952-19.162m0 0l-13.909-6.67 10.407-10.038m3.502 16.708l-62.43 31.021 10.397-76.032 48.531 28.303m0 0l-25.943-70.031 30.867-11.521 8.397 68.705m-13.321 12.847l13.321-12.847m0 0l3.712-49.429 20.936-26.266-2.018 65.959" stroke="#000" stroke-width="3"/><path d="M362.766 73.147l11.266-10.27-55.337-32.183 31.947-16.286 31.471 41.102 8.082-7.367L378.405 2l34.229 3.102L394.28 55.51l54.865-15.122 2.662 32.959-53.443-10.47 8.168 14.735 49.458 8.53-28.904 30.634-27.383-26.483 6.829 38.503-19.76 12.408-12.74-34.719L369.278 154l-40.314-33.735 34.1-17.836-50.074-10.47 4.564-22.102 42.912 20.163-27.319-20.163-7.606-21.714 37.225 25.004z" fill="#FF8D7C"/><path d="M390.195 48.143l-8.082 7.367m8.082-7.367l4.085 7.367m-4.085-7.367L378.405 2l34.229 3.102L394.28 55.51m-20.248 7.367l-16.164 14.735 2.598 12.408m13.566-27.142l-55.337-32.184 31.947-16.286 31.471 41.102m-8.081 7.367l8.081-7.367m12.167 0l54.865-15.122 2.662 32.959-53.443-10.47m-4.084-7.367l4.084 7.367m0 0l8.168 14.735m0 0l3.44 6.204-10.269 6.477m6.829-12.68l49.458 8.53-28.904 30.633-27.383-26.483m0 0l6.829 38.503-19.76 12.408-12.74-34.719m25.671-16.192l-25.671 16.192m0 0l-8.938 5.637-2.03-9.693m10.968 4.056L369.278 154l-40.314-33.735 34.1-17.836m0 0l-50.074-10.47 4.564-22.102 42.912 20.163m2.598 12.409l-2.598-12.409m0 0l-27.319-20.163-7.606-21.714 37.523 25.204" stroke="#000" stroke-width="3"/><path d="M60.444 612.554V584h160.281v101.978h-22.46v14.787h22.46v22.945H60.444V646.5s102.265 1.133 124.039-4c7.752-1.828 11.961-45 0-29.946-13.518 17.013-124.04 0-124.04 0z" fill="#FF8642" stroke="#000" stroke-width="3"/><circle cx="2.571" cy="2.571" r="2.571" transform="matrix(-1 0 0 1 149.869 591.143)" fill="#000"/><circle cx="2.571" cy="2.571" r="2.571" transform="matrix(-1 0 0 1 77.015 591.143)" fill="#000"/><path d="M87.444 694.5l-59 20.5c-34.5-95 77.046-92.964 113.546-69.5 0 0-24.502 1.542-32.002 1.542-7.5 0-18 .5-27.5 7-12.906 8.83-1.01 31.523 4.956 40.458z" fill="#fff" stroke="#000" stroke-width="3"/></svg>