<svg width="393" height="266" fill="none" xmlns="http://www.w3.org/2000/svg"><path d="M-296 53.166V265h972V57.125l-6.075-28.707v18.313l-7.425 6.434-2.7-19.302-4.05 19.303-15.525-14.849 5.4 14.849-8.1-1.485-5.4-9.9-3.713 11.385H622l-9.112-6.435 3.037-12.868-12.15 12.868-8.1 6.434V33.864l-10.8 19.303-3.037-10.394-9.113-24.252v19.797l-5.063 14.849-19.575-28.707 3.038 18.313-7.763 10.394L532.9 46.73l-3.46-28.211-1.94 24.252v10.394h-14.175L505.9 46.73l5.063-18.313-7.763 9.9-2.7 14.848-17.55-6.435V2.681l-9.45 40.09-8.1-18.312v13.858l-5.737 8.414-6.413-12.868-2.362 6.929-3.376-1.485v7.424l-5.737 6.434-14.513-14.848v8.414h-10.125L406 24.46v28.707L393.85 64.55l-2.363-30.686-2.7 19.303-18.899 6.434-6.413-41.08v34.645l-5.4 6.435-7.425-12.869-3.712 6.434-4.05-19.302-2.7 19.303h-13.163l4.05-50.484-9.112 44.05-8.101-2.012L309.812 1l-17.549 45.731-14.851-11.092-10.125-32.957V59.6l-16.874-6.434h-9.788V18.52l-15.863 34.645-8.437-13.858V59.6l-16.875 4.95-6.075-25.243V59.6l-25.313 4.95-12.824-61.868v61.867l-4.388 5.94-20.25-10.89-14.513-27.716 5.063 21.283-5.063 11.383-7.762-4.95-10.8 4.95 5.062-53.454-13.5 53.454-10.462-11.384L72.55 64.55l-7.763-4.95-6.412-12.868L55.337 59.6l-11.812 4.95V39.306L34.075 59.6 23.95 64.55l-13.5-40.091V46.73L-3.388 70.488-9.462 59.6l-13.5 10.888V46.731L-29.038 59.6-42.2 70.488h-8.775l-15.863-17.322V31.883l-6.075 32.666-17.55 14.848-7.087-8.909-11.475-51.968V59.6l-26.663 25.242-12.149-20.293-6.751 14.848-9.45-14.848-4.244 18.405-6.218-74.333v44.544l-6.75 26.232-16.2-14.848 10.125-32.666-30.038 52.959-14.512-38.11v17.817l-11.475 20.293-18.9-38.11 5.4-38.111-28.688 70.776L-296 53.165z" fill="#DCEDFF" stroke="#000" stroke-width="2"/></svg>