<svg width="118" height="101" fill="none" xmlns="http://www.w3.org/2000/svg"><mask id="a" fill="#fff"><path fill-rule="evenodd" clip-rule="evenodd" d="M100.909 5.299c2.005 0 3.63-1.768 3.63-3.948 0-.46-.073-.904-.207-1.315h13.272V78.98H3.886V.036h11.337a4.25 4.25 0 00-.207 1.315c0 2.18 1.625 3.947 3.63 3.947 2.004 0 3.629-1.767 3.629-3.947a4.24 4.24 0 00-.207-1.315h13.72a4.253 4.253 0 00-.206 1.316c0 2.18 1.625 3.947 3.63 3.947 2.004 0 3.628-1.767 3.628-3.947 0-.462-.072-.905-.206-1.316h13.72a4.255 4.255 0 00-.206 1.316c0 2.18 1.625 3.947 3.63 3.947 2.004 0 3.629-1.767 3.629-3.947 0-.462-.073-.905-.207-1.316h13.72a4.252 4.252 0 00-.206 1.315c0 2.18 1.625 3.948 3.63 3.948 2.004 0 3.629-1.768 3.629-3.948 0-.46-.073-.904-.207-1.315h13.72a4.255 4.255 0 00-.206 1.315c0 2.18 1.625 3.948 3.629 3.948z"/></mask><path fill-rule="evenodd" clip-rule="evenodd" d="M100.909 5.299c2.005 0 3.63-1.768 3.63-3.948 0-.46-.073-.904-.207-1.315h13.272V78.98H3.886V.036h11.337a4.25 4.25 0 00-.207 1.315c0 2.18 1.625 3.947 3.63 3.947 2.004 0 3.629-1.767 3.629-3.947a4.24 4.24 0 00-.207-1.315h13.72a4.253 4.253 0 00-.206 1.316c0 2.18 1.625 3.947 3.63 3.947 2.004 0 3.628-1.767 3.628-3.947 0-.462-.072-.905-.206-1.316h13.72a4.255 4.255 0 00-.206 1.316c0 2.18 1.625 3.947 3.63 3.947 2.004 0 3.629-1.767 3.629-3.947 0-.462-.073-.905-.207-1.316h13.72a4.252 4.252 0 00-.206 1.315c0 2.18 1.625 3.948 3.63 3.948 2.004 0 3.629-1.768 3.629-3.948 0-.46-.073-.904-.207-1.315h13.72a4.255 4.255 0 00-.206 1.315c0 2.18 1.625 3.948 3.629 3.948z" fill="#DCEDFF"/><path d="M104.332.036v-2h-2.753l.851 2.618 1.902-.618zm13.272 0h2v-2h-2v2zm0 78.945v2h2v-2h-2zm-113.718 0h-2v2h2v-2zm0-78.945v-2h-2v2h2zm11.337 0l1.902.618.85-2.618h-2.752v2zm6.845 0v-2h-2.753l.851 2.618 1.902-.618zm13.72 0l1.903.618.85-2.618H35.79v2zm6.846 0v-2H39.88l.85 2.618 1.903-.618zm13.72 0l1.903.618.85-2.618h-2.752v2zm6.846 0v-2h-2.753l.851 2.618L63.2.036zm13.72 0l1.903.618.85-2.618h-2.752v2zm6.846 0v-2h-2.753l.851 2.618 1.902-.618zm13.72 0l1.903.618.851-2.618h-2.753v2zm5.053 1.315c0 1.237-.885 1.948-1.63 1.948v4c3.264 0 5.63-2.824 5.63-5.948h-4zm-.109-.697c.069.213.109.447.109.697h4c0-.672-.106-1.323-.305-1.934L102.43.654zm1.902 1.382h13.272v-4h-13.272v4zm11.272-2V78.98h4V.036h-4zm2 76.945H3.886v4h113.718v-4zm-111.718 2V.036h-4V78.98h4zm-2-76.945h11.337v-4H3.886v4zM13.32-.582a6.254 6.254 0 00-.304 1.933h4c0-.25.04-.484.109-.697L13.32-.582zm-.304 1.933c0 3.123 2.366 5.947 5.63 5.947v-4c-.746 0-1.63-.71-1.63-1.947h-4zm5.63 5.947c3.263 0 5.629-2.824 5.629-5.947h-4c0 1.237-.885 1.947-1.63 1.947v4zm5.629-5.947c0-.672-.106-1.323-.305-1.933L20.166.654c.07.213.109.447.109.697h4zm-2.207.685h13.72v-4h-13.72v4zM33.886-.583a6.252 6.252 0 00-.304 1.935h4c0-.25.04-.485.109-.698L33.886-.583zm-.304 1.935c0 3.123 2.365 5.947 5.63 5.947v-4c-.746 0-1.63-.71-1.63-1.947h-4zm5.63 5.947c3.263 0 5.628-2.824 5.628-5.947h-4c0 1.236-.884 1.947-1.629 1.947v4zm5.628-5.947a6.27 6.27 0 00-.304-1.935L40.732.654c.07.213.108.447.108.698h4zm-2.206.684h13.72v-4h-13.72v4zM54.453-.583a6.254 6.254 0 00-.305 1.935h4c0-.25.04-.485.109-.698L54.453-.583zm-.305 1.935c0 3.123 2.366 5.947 5.63 5.947v-4c-.746 0-1.63-.71-1.63-1.947h-4zm5.63 5.947c3.263 0 5.629-2.824 5.629-5.947h-4c0 1.236-.885 1.947-1.63 1.947v4zm5.629-5.947a6.24 6.24 0 00-.305-1.935L61.298.654c.07.213.109.447.109.698h4zm-2.207.684h13.72v-4H63.2v4zM75.02-.583a6.253 6.253 0 00-.305 1.934h4c0-.25.04-.484.109-.697L75.019-.583zm-.305 1.934c0 3.124 2.366 5.948 5.63 5.948v-4c-.745 0-1.63-.71-1.63-1.948h-4zm5.63 5.948c3.263 0 5.629-2.824 5.629-5.948h-4c0 1.237-.885 1.948-1.63 1.948v4zm5.629-5.948c0-.672-.106-1.323-.305-1.934L81.864.654c.07.213.109.447.109.697h4zm-2.207.685h13.72v-4h-13.72v4zM99.28 1.35c0-.25.04-.484.109-.697L95.585-.583a6.254 6.254 0 00-.305 1.934h4zm1.63 1.95c-.745 0-1.629-.71-1.629-1.948h-4c0 3.124 2.366 5.948 5.629 5.948v-4z" fill="#000" mask="url(#a)"/><path d="M23.802 70.555l3.62 1.26.404-16.108 7.44 5.114-5.247 11.898 2.597.904 8.732-8.148 3.448 7.947-13.309 1.99 9.95 10.325-6.932 4.546L30.36 77.2l-2.257 3.576 4.092 11.969-10.23-2.72 2.523-9.238-7.65 6.133-5.115-2.883 6.103-6.987-11.031 4.652 2.558-12.97 8.042 5.404-3.74-12.337 5.415-1.643.742 11.916 1.14-8.466 3.86-4.29-1.009 11.24z" fill="#FF8D7C"/><path d="M32.616 73.623l-2.597-.904m2.597.904l-1.129 1.789m1.129-1.789l8.732-8.148 3.448 7.947-13.309 1.99m-4.065-3.597l-5.194-1.808-2.417 2.065m7.61-.257l.405-16.108 7.44 5.114-5.247 11.898m-2.597-.904l2.597.904m1.468 2.693l9.95 10.325-6.932 4.546L30.36 77.2m1.128-1.788L30.36 77.2m0 0l-2.257 3.576m0 0l-.95 1.506-2.665-1.495m3.615-.01l4.092 11.968-10.23-2.72 2.523-9.238m0 0l-7.65 6.133-5.115-2.883 6.103-6.987m6.662 3.737l-6.662-3.737m0 0l-2.32-1.3 1.889-1.614m.43 2.914l-11.03 4.652 2.558-12.97 8.042 5.404m0 0L13.654 61.8l5.415-1.643.742 11.916m-2.417 2.064l2.417-2.064m0 0l1.14-8.466 3.86-4.29-1.017 11.33" stroke="#000" stroke-width="2"/></svg>