<svg width="255" height="206" fill="none" xmlns="http://www.w3.org/2000/svg"><mask id="a" fill="#fff"><path fill-rule="evenodd" clip-rule="evenodd" d="M188.66 10.504c3.892 0 7.048-3.432 7.048-7.666a8.25 8.25 0 00-.401-2.555h25.774v153.312H.241V.283h22.015a8.26 8.26 0 00-.402 2.555c0 4.234 3.156 7.666 7.049 7.666 3.892 0 7.048-3.432 7.048-7.666A8.26 8.26 0 0035.55.283h26.645a8.254 8.254 0 00-.401 2.555c0 4.234 3.155 7.666 7.048 7.666 3.892 0 7.048-3.432 7.048-7.666a8.26 8.26 0 00-.401-2.555h26.645a8.284 8.284 0 00-.401 2.555c0 4.234 3.156 7.666 7.048 7.666 3.893 0 7.048-3.432 7.048-7.666a8.25 8.25 0 00-.401-2.555h26.646a8.25 8.25 0 00-.401 2.555c0 4.233 3.155 7.665 7.048 7.665 3.892 0 7.048-3.432 7.048-7.665a8.25 8.25 0 00-.401-2.555h26.645c-.26.8-.401 1.66-.401 2.555 0 4.234 3.155 7.666 7.048 7.666z"/></mask><path fill-rule="evenodd" clip-rule="evenodd" d="M188.66 10.504c3.892 0 7.048-3.432 7.048-7.666a8.25 8.25 0 00-.401-2.555h25.774v153.312H.241V.283h22.015a8.26 8.26 0 00-.402 2.555c0 4.234 3.156 7.666 7.049 7.666 3.892 0 7.048-3.432 7.048-7.666A8.26 8.26 0 0035.55.283h26.645a8.254 8.254 0 00-.401 2.555c0 4.234 3.155 7.666 7.048 7.666 3.892 0 7.048-3.432 7.048-7.666a8.26 8.26 0 00-.401-2.555h26.645a8.284 8.284 0 00-.401 2.555c0 4.234 3.156 7.666 7.048 7.666 3.893 0 7.048-3.432 7.048-7.666a8.25 8.25 0 00-.401-2.555h26.646a8.25 8.25 0 00-.401 2.555c0 4.233 3.155 7.665 7.048 7.665 3.892 0 7.048-3.432 7.048-7.665a8.25 8.25 0 00-.401-2.555h26.645c-.26.8-.401 1.66-.401 2.555 0 4.234 3.155 7.666 7.048 7.666z" fill="#DCEDFF"/><path d="M195.307.283v-3h-4.129l1.276 3.927 2.853-.927zm25.774 0h3v-3h-3v3zm0 153.312v3h3v-3h-3zm-220.84 0h-3v3h3v-3zM.24.283v-3h-3v3h3zm22.015 0l2.853.927 1.276-3.927h-4.13v3zm13.294 0v-3h-4.13l1.276 3.927L35.55.283zm26.645 0l2.853.927 1.276-3.927h-4.13v3zm13.294 0v-3h-4.13l1.277 3.927 2.853-.927zm26.645 0l2.853.927 1.277-3.927h-4.13v3zm13.294 0v-3h-4.129l1.276 3.927 2.853-.927zm26.646 0l2.853.927 1.276-3.927h-4.129v3zm13.294 0v-3h-4.129l1.276 3.927 2.853-.927zm26.645 0l2.853.927 1.276-3.927h-4.129v3zm10.695 2.555c0 2.819-2.045 4.666-4.048 4.666v6c5.782 0 10.048-5.018 10.048-10.666h-6zm-.254-1.628c.163.501.254 1.049.254 1.628h6c0-1.212-.191-2.385-.548-3.482l-5.706 1.854zm2.853 2.073h25.774v-6h-25.774v6zm22.774-3v153.312h6V.283h-6zm3 150.312H.241v6h220.84v-6zm-217.84 3V.283h-6v153.312h6zM.24 3.283h22.015v-6H.24v6zM19.401-.644a11.258 11.258 0 00-.548 3.482h6c0-.58.092-1.127.255-1.628L19.402-.644zm-.548 3.482c0 5.648 4.267 10.666 10.049 10.666v-6c-2.004 0-4.049-1.847-4.049-4.666h-6zm10.049 10.666c5.781 0 10.048-5.018 10.048-10.666h-6c0 2.819-2.045 4.666-4.048 4.666v6zM38.95 2.838a11.26 11.26 0 00-.548-3.482L32.697 1.21a5.26 5.26 0 01.254 1.628h6zm-3.401.445h26.645v-6H35.55v6zM59.342-.644a11.261 11.261 0 00-.548 3.482h6c0-.58.09-1.127.254-1.628L59.342-.644zm-.548 3.482c0 5.648 4.266 10.666 10.048 10.666v-6c-2.004 0-4.048-1.847-4.048-4.666h-6zm10.048 10.666c5.781 0 10.048-5.018 10.048-10.666h-6c0 2.819-2.045 4.666-4.048 4.666v6zM78.89 2.838c0-1.212-.192-2.385-.548-3.482L72.636 1.21c.163.501.254 1.049.254 1.628h6zm-3.401.445h26.645v-6H75.489v6zM99.28-.644a11.261 11.261 0 00-.548 3.482h6c0-.58.091-1.127.254-1.628L99.281-.644zm-.548 3.482c0 5.648 4.267 10.666 10.048 10.666v-6c-2.003 0-4.048-1.847-4.048-4.666h-6zm10.048 10.666c5.782 0 10.048-5.018 10.048-10.666h-6c0 2.819-2.044 4.666-4.048 4.666v6zm10.048-10.666c0-1.212-.191-2.385-.547-3.482l-5.707 1.854c.163.501.254 1.049.254 1.628h6zm-3.401.445h26.646v-6h-26.646v6zM139.22-.644a11.274 11.274 0 00-.547 3.482h6c0-.58.091-1.127.254-1.628L139.22-.644zm-.547 3.482c0 5.648 4.266 10.665 10.048 10.665v-6c-2.004 0-4.048-1.846-4.048-4.665h-6zm10.048 10.665c5.781 0 10.048-5.017 10.048-10.665h-6c0 2.819-2.045 4.665-4.048 4.665v6zm10.048-10.665c0-1.212-.192-2.385-.548-3.482l-5.706 1.854c.163.501.254 1.048.254 1.628h6zm-3.401.445h26.645v-6h-26.645v6zm29.244-.445c0-.58.091-1.127.254-1.628L179.16-.644a11.247 11.247 0 00-.548 3.482h6zm4.048 4.666c-2.004 0-4.048-1.847-4.048-4.666h-6c0 5.648 4.266 10.666 10.048 10.666v-6z" fill="#000" mask="url(#a)"/><path d="M202.224 146.977l7.029 2.447.785-31.283 14.449 9.932-10.19 23.106 5.043 1.756 16.958-15.824 6.697 15.433-25.847 3.864 19.324 20.052-13.463 8.828-8.052-25.408-4.383 6.946 7.947 23.243-19.868-5.281 4.9-17.941-14.855 11.911-9.935-5.599 11.853-13.569-21.422 9.033 4.968-25.188 15.617 10.496-7.263-23.96 10.516-3.191 1.441 23.142 2.214-16.441 7.498-8.331-1.961 21.827z" fill="#FF8D7C"/><path d="M219.34 152.935l-5.043-1.756m5.043 1.756l-2.192 3.473m2.192-3.473l16.958-15.824 6.697 15.433-25.847 3.864m-7.895-6.984l-10.086-3.511-4.694 4.009m14.78-.498l.785-31.283 14.449 9.932-10.19 23.106m-5.044-1.755l5.044 1.755m2.851 5.229l19.324 20.052-13.463 8.828-8.052-25.408m2.191-3.472l-2.191 3.472m0 0l-4.383 6.946m0 0l-1.845 2.924-5.176-2.903m7.021-.021l7.947 23.242-19.868-5.28 4.9-17.941m0 0l-14.855 11.911-9.935-5.599 11.853-13.569m12.937 7.257l-12.937-7.257m0 0l-4.505-2.527 3.668-3.132m.837 5.659l-21.422 9.033 4.968-25.188 15.617 10.496m0 0l-7.263-23.96 10.516-3.191 1.441 23.142m-4.694 4.009l4.694-4.009m0 0l2.214-16.441 7.498-8.331-1.977 22.001" stroke="#000" stroke-width="3"/></svg>