<svg width="127" height="69" fill="none" xmlns="http://www.w3.org/2000/svg"><mask id="a" fill="#fff"><path fill-rule="evenodd" clip-rule="evenodd" d="M99.035 1.595l-12.602.853c.01.063.018.128.025.192.265 2.418-1.33 4.589-3.563 4.85-2.232.26-4.257-1.489-4.522-3.906a4.819 4.819 0 01-.028-.589l-12.617.853c.01.064.018.128.025.193.264 2.417-1.33 4.588-3.563 4.849-2.233.26-4.258-1.488-4.522-3.905a4.818 4.818 0 01-.029-.59l-12.674.858c.05.203.088.413.112.628.264 2.417-1.33 4.588-3.563 4.849-2.233.26-4.258-1.488-4.522-3.905a4.775 4.775 0 01-.002-1.032l-12.73.86c.05.204.087.414.111.628.265 2.418-1.33 4.589-3.563 4.85-2.233.26-4.257-1.488-4.522-3.906a4.774 4.774 0 01-.002-1.032L0 8.295l4.047 59.831 122.619-8.295L122.618 0l-15.463 1.046c.135 2.317-1.427 4.351-3.584 4.603-2.232.26-4.257-1.488-4.522-3.905a4.7 4.7 0 01-.014-.149z"/></mask><path fill-rule="evenodd" clip-rule="evenodd" d="M99.035 1.595l-12.602.853c.01.063.018.128.025.192.265 2.418-1.33 4.589-3.563 4.85-2.232.26-4.257-1.489-4.522-3.906a4.819 4.819 0 01-.028-.589l-12.617.853c.01.064.018.128.025.193.264 2.417-1.33 4.588-3.563 4.849-2.233.26-4.258-1.488-4.522-3.905a4.818 4.818 0 01-.029-.59l-12.674.858c.05.203.088.413.112.628.264 2.417-1.33 4.588-3.563 4.849-2.233.26-4.258-1.488-4.522-3.905a4.775 4.775 0 01-.002-1.032l-12.73.86c.05.204.087.414.111.628.265 2.418-1.33 4.589-3.563 4.85-2.233.26-4.257-1.488-4.522-3.906a4.774 4.774 0 01-.002-1.032L0 8.295l4.047 59.831 122.619-8.295L122.618 0l-15.463 1.046c.135 2.317-1.427 4.351-3.584 4.603-2.232.26-4.257-1.488-4.522-3.905a4.7 4.7 0 01-.014-.149z" fill="#DCEDFF"/><path d="M86.433 2.448L86.298.452 84.133.6l.323 2.146 1.977-.297zm12.602-.853l1.994-.156-.155-1.973L98.9-.4l.135 1.995zM86.459 2.64l-1.988.218 1.988-.218zm-8.085.944l1.988-.218-1.988.218zm-.028-.589l2 .027.03-2.169L78.21 1l.135 1.995zm-12.617.853l-.135-1.995L63.427 2l.323 2.146 1.978-.297zm.025.193l-1.989.218 1.989-.218zM62.19 8.89l-.232-1.987.232 1.987zm-4.522-3.905l-1.989.217 1.989-.217zm-.029-.59l2 .028.03-2.17-2.165.147.135 1.996zm-12.674.858l-.135-1.995-2.378.16.572 2.315 1.941-.48zm.112.628l1.988-.218-1.988.218zm-3.563 4.849l-.232-1.987.232 1.987zm-4.522-3.905l-1.988.217 1.988-.217zm-.002-1.032l1.989.214.256-2.37-2.38.16.135 1.996zm-12.73.86l-.135-1.995-2.379.161.572 2.314 1.942-.48zm.111.628l1.988-.217-1.988.217zm-3.563 4.85l-.232-1.987.232 1.987zm-4.522-3.906l-1.988.218 1.988-.218zm-.002-1.032l1.989.215.256-2.371-2.38.16.136 1.996zM0 8.295l-.135-1.996-1.995.135.135 1.996L0 8.295zm4.047 59.831l-1.995.135.135 1.996 1.995-.136-.135-1.995zm122.619-8.295l.135 1.996 1.995-.135-.135-1.996-1.995.135zM122.618 0l1.996-.135-.135-1.995-1.996.135.135 1.995zm-15.463 1.046l-.135-1.995-1.977.133.115 1.978 1.997-.116zm-3.584 4.603l.232 1.986-.232-1.986zm-4.522-3.905l1.989-.218h-.001l-1.988.218zm-12.48 2.7L99.17 3.59 98.9-.4 86.298.452l.27 3.991zm1.877-2.022a6.925 6.925 0 00-.035-.271l-3.956.594c.006.037.011.075.015.113l3.976-.436zm-5.319 7.054c3.467-.405 5.688-3.692 5.32-7.054l-3.977.436c.162 1.474-.809 2.528-1.807 2.645l.464 3.973zm-6.742-5.674c.37 3.369 3.26 6.08 6.742 5.674l-.464-3.973c-.984.115-2.141-.671-2.302-2.137l-3.976.436zm-.04-.834c-.004.275.01.554.04.834l3.976-.436a2.81 2.81 0 01-.016-.344l-4-.054zM65.863 5.844L78.48 4.99 78.21 1l-12.617.853.27 3.99zm1.878-2.021a6.877 6.877 0 00-.036-.272l-3.955.595.014.113 3.977-.436zm-5.32 7.053c3.467-.404 5.688-3.692 5.32-7.053l-3.977.436c.162 1.473-.808 2.528-1.806 2.644l.463 3.973zM55.68 5.202c.37 3.37 3.261 6.08 6.742 5.674l-.463-3.973c-.984.115-2.142-.67-2.302-2.136l-3.977.435zm-.04-.833c-.003.275.01.554.04.833l3.977-.435a2.812 2.812 0 01-.017-.344l-4-.054zM45.1 7.249l12.674-.858-.27-3.99-12.674.857.27 3.99zm1.965-1.586a6.795 6.795 0 00-.158-.89l-3.883.96c.029.117.05.24.065.366l3.976-.436zm-5.32 7.053c3.468-.404 5.688-3.692 5.32-7.053l-3.976.436c.16 1.473-.81 2.528-1.807 2.644l.464 3.973zm-6.741-5.674c.369 3.37 3.26 6.08 6.742 5.675l-.464-3.974c-.984.115-2.142-.67-2.302-2.136l-3.976.435zm-.002-1.464c-.052.478-.053.969.002 1.464l3.976-.435a2.771 2.771 0 01-.001-.6l-3.977-.43zM24.395 8.649l12.73-.861-.27-3.99-12.73.86.27 3.991zm1.964-1.585a6.795 6.795 0 00-.158-.89l-3.883.96c.03.117.051.239.065.365l3.976-.435zm-5.32 7.053c3.468-.405 5.688-3.692 5.32-7.053l-3.976.435c.161 1.474-.809 2.529-1.807 2.645l.464 3.973zm-6.741-5.674c.369 3.37 3.26 6.08 6.742 5.674l-.464-3.973c-.984.115-2.141-.67-2.302-2.137l-3.976.436zm-.002-1.464c-.051.478-.052.969.002 1.464l3.976-.436a2.77 2.77 0 01-.001-.6l-3.977-.428zM.135 10.29l16.285-1.1-.27-3.991-16.285 1.1.27 3.991zm5.908 57.701L1.995 8.16l-3.99.27 4.047 59.83 3.99-.27zM126.53 57.836L3.912 66.13l.27 3.99 122.619-8.294-.27-3.991zM120.623.135l4.047 59.831 3.991-.27-4.047-59.831-3.991.27zM107.29 3.042l15.463-1.047-.27-3.99L107.02-.95l.27 3.99zm-2.132-1.88c.082 1.404-.853 2.388-1.819 2.5l.464 3.973c3.347-.39 5.536-3.475 5.349-6.705l-3.994.232zm-1.819 2.5c-.984.115-2.141-.67-2.301-2.136l-3.977.435c.37 3.37 3.261 6.08 6.742 5.674l-.464-3.973zm-2.302-2.136l-.008-.087-3.987.313c.005.07.012.14.02.21l3.975-.436z" fill="#000" mask="url(#a)"/></svg>