<svg width="314" height="135" fill="none" xmlns="http://www.w3.org/2000/svg"><mask id="a" fill="#fff"><path fill-rule="evenodd" clip-rule="evenodd" d="M247.004 4.446l-31.351 2.12c.023.159.044.318.062.479.658 6.014-3.31 11.415-8.864 12.063-5.554.649-10.591-3.701-11.25-9.715a11.874 11.874 0 01-.07-1.465l-31.389 2.123c.024.159.044.318.062.479.659 6.014-3.31 11.415-8.864 12.063-5.554.648-10.591-3.701-11.25-9.716a12.074 12.074 0 01-.07-1.465l-31.53 2.133c.125.506.218 1.028.277 1.562.659 6.014-3.31 11.415-8.864 12.064-5.554.648-10.59-3.702-11.25-9.716a11.874 11.874 0 01-.003-2.567L60.98 17.03c.124.506.218 1.027.276 1.562.659 6.014-3.31 11.415-8.864 12.063-5.554.648-10.59-3.701-11.25-9.716a11.874 11.874 0 01-.003-2.567L.627 21.112l7.692 113.705 305.046-20.636L305.673.477l-38.47 2.603c.336 5.764-3.55 10.824-8.915 11.45-5.554.649-10.591-3.7-11.249-9.715a11.655 11.655 0 01-.035-.369z"/></mask><path fill-rule="evenodd" clip-rule="evenodd" d="M247.004 4.446l-31.351 2.12c.023.159.044.318.062.479.658 6.014-3.31 11.415-8.864 12.063-5.554.649-10.591-3.701-11.25-9.715a11.874 11.874 0 01-.07-1.465l-31.389 2.123c.024.159.044.318.062.479.659 6.014-3.31 11.415-8.864 12.063-5.554.648-10.591-3.701-11.25-9.716a12.074 12.074 0 01-.07-1.465l-31.53 2.133c.125.506.218 1.028.277 1.562.659 6.014-3.31 11.415-8.864 12.064-5.554.648-10.59-3.702-11.25-9.716a11.874 11.874 0 01-.003-2.567L60.98 17.03c.124.506.218 1.027.276 1.562.659 6.014-3.31 11.415-8.864 12.063-5.554.648-10.59-3.701-11.25-9.716a11.874 11.874 0 01-.003-2.567L.627 21.112l7.692 113.705 305.046-20.636L305.673.477l-38.47 2.603c.336 5.764-3.55 10.824-8.915 11.45-5.554.649-10.591-3.7-11.249-9.715a11.655 11.655 0 01-.035-.369z" fill="#DCEDFF"/><path d="M215.653 6.567l-.203-2.993-3.248.22.484 3.219 2.967-.446zm31.351-2.121l2.991-.235-.233-2.958-2.961.2.203 2.993zm-31.289 2.599l2.982-.327-2.982.327zm-20.114 2.348l2.982-.327-2.982.327zm-.07-1.465l3 .04.044-3.253-3.247.22.203 2.993zm-31.389 2.123l-.203-2.993-3.247.22.483 3.219 2.967-.446zm.062.479l2.982-.327-2.982.327zm-20.114 2.347l2.983-.326-2.983.326zm-.07-1.465l3 .041.044-3.253-3.246.22.202 2.992zm-31.53 2.133l-.202-2.993-3.568.242.858 3.471 2.912-.72zm.277 1.562l-2.982.327 2.982-.327zm-8.864 12.064l-.348-2.98.348 2.98zm-11.25-9.716l-2.982.327 2.982-.327zm-.003-2.567l2.982.322.384-3.557-3.569.241.203 2.994zM60.98 17.03l-.203-2.993-3.568.241.858 3.472 2.912-.72zm.276 1.562l2.982-.327-2.982.327zM41.143 20.94l-2.983.326 2.983-.326zm-.004-2.568l2.983.322.383-3.556-3.569.241.203 2.993zM.627 21.112L.424 18.12l-2.993.202.203 2.993 2.993-.202zm7.692 113.705l-2.993.202.202 2.993 2.993-.202-.202-2.993zm305.046-20.636l.202 2.993 2.993-.202-.202-2.993-2.993.202zM305.673.477l2.993-.202-.202-2.993-2.994.202.203 2.993zm-38.47 2.603l-.202-2.994-2.965.2.172 2.968 2.995-.174zm-8.915 11.45l.348 2.98-.348-2.98zm-11.249-9.715l2.982-.327-2.982.327zM215.855 9.56l31.351-2.12-.405-5.987-31.351 2.12.405 5.987zm2.842-2.842c-.022-.2-.048-.4-.078-.597l-5.933.891c.018.119.033.239.047.36l5.964-.654zm-11.498 15.37c7.406-.864 12.312-7.94 11.498-15.37l-5.964.654c.503 4.598-2.528 8.324-6.23 8.757l.696 5.96zM192.619 9.72c.815 7.442 7.152 13.236 14.58 12.37l-.696-5.96c-3.681.43-7.417-2.476-7.92-7.063l-5.964.653zm-.088-1.832c-.008.605.021 1.217.088 1.832l5.964-.653a9.061 9.061 0 01-.052-1.097l-6-.082zm-28.187 5.157l31.389-2.123-.405-5.986-31.389 2.123.405 5.986zm2.842-2.841c-.022-.2-.048-.4-.077-.597l-5.934.891c.018.119.034.238.047.36l5.964-.654zm-11.498 15.37c7.406-.865 12.312-7.94 11.498-15.37l-5.964.653c.503 4.599-2.527 8.325-6.23 8.757l.696 5.96zm-14.58-12.369c.815 7.441 7.153 13.236 14.58 12.369l-.696-5.96c-3.681.43-7.417-2.476-7.919-7.062l-5.965.653zm-.088-1.832c-.008.605.021 1.217.088 1.832l5.965-.653a8.867 8.867 0 01-.053-1.098l-6-.081zm-28.327 5.167l31.53-2.133-.405-5.987-31.53 2.133.405 5.987zm3.056-1.759a14.893 14.893 0 00-.346-1.954l-5.825 1.439c.093.377.163.767.207 1.169l5.964-.654zm-11.498 15.37c7.406-.864 12.312-7.94 11.498-15.37l-5.964.654c.503 4.598-2.528 8.325-6.23 8.757l.696 5.96zm-14.58-12.368c.815 7.441 7.153 13.235 14.58 12.368l-.696-5.96c-3.681.43-7.417-2.475-7.92-7.062l-5.964.654zm-.004-3.216a14.873 14.873 0 00.004 3.216l5.965-.654a8.87 8.87 0 01-.004-1.918l-5.965-.644zm-28.485 5.457l31.67-2.142-.405-5.987-31.67 2.143.405 5.986zm3.056-1.758c-.073-.667-.19-1.32-.346-1.955l-5.825 1.44c.093.376.163.766.207 1.168l5.964-.653zM52.74 33.635c7.406-.865 12.312-7.94 11.498-15.37l-5.964.653c.504 4.599-2.527 8.325-6.23 8.757l.696 5.96zM38.16 21.266c.816 7.442 7.153 13.236 14.58 12.369l-.696-5.96c-3.681.43-7.417-2.475-7.92-7.062l-5.964.653zm-.004-3.216a14.872 14.872 0 00.004 3.216l5.965-.653a8.87 8.87 0 01-.003-1.919l-5.966-.644zM.83 24.106l40.512-2.74-.405-5.987-40.512 2.74.405 5.987zm10.483 110.508L3.62 20.91l-5.986.405L5.326 135.02l5.986-.405zm301.85-23.426L8.116 131.823l.405 5.987 305.046-20.636-.405-5.986zM302.68.68l7.691 113.704 5.987-.405L308.666.275 302.68.68zm-35.274 5.393l38.469-2.603-.405-5.986L267.001.086l.405 5.987zm-3.198-2.82c.256 4.396-2.689 7.88-6.268 8.298l.696 5.96c7.151-.835 11.977-7.472 11.562-14.606l-5.99.349zm-6.268 8.298c-3.681.43-7.417-2.476-7.919-7.063l-5.965.654c.816 7.441 7.153 13.235 14.58 12.368l-.696-5.96zm-7.919-7.063a8.866 8.866 0 01-.026-.277l-5.982.47c.012.153.027.307.043.46l5.965-.653z" fill="#000" mask="url(#a)"/></svg>