<svg width="220" height="582" fill="none" xmlns="http://www.w3.org/2000/svg"><path d="M50.127 566.996l5.503-34.102 26.402-2.481.887 10.415s13.684 4.734 22.526 3.635c8.893-1.105 12.257-10.825 21.054-9.122 8.392 1.624 15.006 6.303 15.864 15.079.719 7.346-3.393 12.735-13.111 13.614-32.748 2.962-79.125 2.962-79.125 2.962z" fill="#fff" stroke="#000" stroke-width="2"/><path d="M89.739 428.934l2.083 100.49-48.267 4.614v-97.925L15.35 397.767l-6.972 17.747-13.944 20.599v-135.32l45.635-1.585 49.67 129.726z" fill="#AAD2FD"/><path d="M40.07 299.208l49.669 129.726 2.083 100.49-48.267 4.614v-97.925L15.35 397.767m24.72-98.559l-24.72 98.559m24.72-98.559l-45.636 1.585v135.32l13.944-20.599 6.972-17.747" stroke="#000" stroke-width="2"/><path d="M57.06 302.155c-7.273-37.399-10.595-40.862-15.155-71.312-6.45-43.07-1.586-44.314-11.093-98.885-3.479-19.967-36.051-30.426-36.051-30.426V335.75s69.573 3.804 62.3-33.595z" fill="#DCEDFF" stroke="#000" stroke-width="2"/><path d="M84.914 212.313s-40.662-66.793-57.439-89.972c-21.799-30.116-42.101 60.963-10.446 89.972 19.58 17.943 62.91 48.147 62.91 48.147l85.577-42.502-17.248-27.561-63.354 21.916z" fill="#DCEDFF" stroke="#000" stroke-width="2"/><path d="M190.28 158.82c-8.621 4.435-14.262 13.505-18.088 21.396-2.899 5.981-5.619 9.406-11.476 12.626-3.649 2.006-9.244 2.841-9.244 2.841l10.519 16.729s4.592-3.804 8.607-5.366c8.926-3.472 17.215-4.735 17.215-4.735s21.358-4.103 25.821-15.466c3.255-8.289 1.216-30.139-2.287-38.005-5.796 12.251-13.306 29.199-25.872 33.634-9.698 3.423 13.703-28.232 4.805-23.654z" fill="#fff" stroke="#000" stroke-width="2"/><path d="M11.497 87.932c-.863 8.054 0 20.328 0 20.328l-16.736-7.263V12.903S8.102 1.626 18.415 1.075C29.977.46 39.92 3.621 49.092 10.685c6.515 5.017 12.06 10.712 13.675 18.774 3.86 19.275.093 38.856-7.392 58.473-7.022 18.404-36.479 3.492-43.878 0z" fill="#fff"/><path d="M11.497 87.932c-.863 8.054 0 20.328 0 20.328l-16.736-7.263V76.768m16.736 11.164c7.4 3.492 36.856 18.404 43.879 0 7.484-19.617 11.252-39.198 7.392-58.473-1.615-8.062-7.161-13.757-13.676-18.774C39.92 3.621 29.977.46 18.415 1.075 8.102 1.625-5.239 12.903-5.239 12.903v63.865m16.736 11.164c-7.4-3.493-16.736-11.164-16.736-11.164" stroke="#000" stroke-width="2"/><path d="M204.612 134.425H218l-24.394 52.179h-14.044l25.05-52.179z" fill="#DCEDFF" stroke="#000" stroke-width="2"/></svg>