<svg width="194" height="101" fill="none" xmlns="http://www.w3.org/2000/svg"><path d="M172.275 73.326l-6.853 8.332 3.567 2.79 3.286-3.61 9.153 6.785 2.643-3.211-9.008-6.821 4.005-4.546 9.282 7.008 2.812-3.05-9.144-7.374 2.57-2.85-3.918-3.125-6.129 7.079c-8.538-8.177-16.756-17.132-24.764-17.826-4.236-7.327-16.788-9.414-19.109-6.52l-.048 6.375c4.333-5.422 11.31-2.558 14.861.788-3.38 1.748-8.456 5.975-7.751 11.59.501 3.988 6.99 9.507 12.541 3.62 2.008-2.132 2.791-4.271 1.46-10.719 8.36 2.001 15.49 10.498 20.544 15.285z" fill="#DCEDFF"/><path d="M146.978 58.312c1.845-.752 2.889-.716 4.753-.27m-4.753.27c-2.003 1.416-6.066 6.851-2.658 6.877 2.606.02 2.889-3.707 2.658-6.877zm25.297 22.527l-3.286 3.609-3.567-2.79 6.853-8.332c-5.054-4.787-12.184-13.284-20.544-15.284m20.544 22.797l9.153 6.784 2.643-3.211-9.008-6.821m-2.788 3.248l2.788-3.248m0 0l4.005-4.546m2.95-3.416l2.57-2.85-3.918-3.125-6.129 7.079c-8.538-8.177-16.756-17.132-24.764-17.826m32.241 16.722l9.144 7.375-2.812 3.05-9.282-7.01m2.95-3.415l-2.95 3.416M151.731 58.04c1.331 6.448.548 8.588-1.46 10.718-5.551 5.888-12.04.37-12.541-3.62-.705-5.614 4.371-9.841 7.751-11.59m0 0c-3.551-3.345-10.528-6.21-14.861-.787l.048-6.374c2.321-2.895 14.873-.808 19.109 6.519m-4.296.643c1.597-.784 2.539-.796 4.296-.643" stroke="#000" stroke-width="2"/><path d="M147.66 58.087c-2.594.66-6.358 6.227-3.695 7.412 2.662 1.185 5.363-4.34 3.695-7.412z" fill="#DCEDFF" stroke="#000" stroke-width="2"/><path d="M129.994 83.796V13.074H101.56V1H31.052v12.074H1v22.153s51.581 16.168 98.017 3c10.578-3 6.978 12.57 0 17.365C88.088 63.1 1 55.592 1 55.592v28.204h128.994z" fill="#FF8D7C" stroke="#000" stroke-width="2"/><ellipse cx="35.794" cy="5.41" rx="1.809" ry="1.693" transform="rotate(-.272 35.794 5.41)" fill="#000"/><ellipse cx="69.894" cy="5.248" rx="1.809" ry="1.693" transform="rotate(-.272 69.894 5.248)" fill="#000"/></svg>