<svg width="180" height="112" fill="none" xmlns="http://www.w3.org/2000/svg"><path d="M178.121 23.546V1.228H52.846v79.706H70.4V92.49H52.846v17.934h125.275V37.257s-83.884 8.31-96.948 2.23c-5.645-2.627-10.773-21.798 0-15.941 20.578 11.188 96.948 0 96.948 0z" fill="#fff" stroke="#000" stroke-width="2"/><path d="M126.826 23.546V1.228H1.551v79.706h17.554V92.49H1.551v17.934h125.275V41.159s-83.885 4.408-96.949-1.672c-5.644-2.627-9.269-27.947 1.503-22.09 20.579 11.189 95.446 6.149 95.446 6.149z" fill="#fff" stroke="#000" stroke-width="2"/><path d="M139.092 23.546V1.228H13.817v79.706H31.37V92.49H13.817v17.934h125.275V41.159s-83.884 4.408-96.949-1.672c-5.644-2.627-10.772-30.734 0-24.878 20.58 11.19 96.949 8.937 96.949 8.937z" fill="#fff" stroke="#000" stroke-width="2"/><path d="M165.297 25.203V1.228H40.022v79.706h17.555V92.49H40.022v17.934h125.275V38.372s-83.884 7.195-96.948 1.115c-5.644-2.627-10.772-21.798 0-15.941 20.578 11.188 96.948 1.657 96.948 1.657z" fill="#fff" stroke="#000" stroke-width="2"/><path d="M153.031 26.318V1.228H27.756v79.706H45.31V92.49H27.756v17.934H153.03V39.487s-83.884 6.08-96.949 0c-5.644-2.627-10.772-21.798 0-15.941 20.579 11.188 96.949 2.772 96.949 2.772z" fill="#fff" stroke="#000" stroke-width="2"/><circle cx="77.33" cy="11.947" r="2.01" fill="#000"/><circle cx="134.273" cy="11.947" r="2.01" fill="#000"/></svg>