<svg width="186" height="144" fill="none" xmlns="http://www.w3.org/2000/svg"><path d="M23.907 30.752V2.198h160.281v101.978h-22.46v14.787h22.46v22.945H23.907v-90.76s102.265 5.133 124.039 0c7.752-1.828 13.782-29.148 0-20.396-18.344 11.649-124.04 0-124.04 0z" fill="#FF8642" stroke="#000" stroke-width="3"/><circle cx="2.571" cy="2.571" r="2.571" transform="matrix(-1 0 0 1 123.332 13.34)" fill="#000"/><circle cx="2.571" cy="2.571" r="2.571" transform="matrix(-1 0 0 1 50.477 13.34)" fill="#000"/><path d="M82.315 97.5L20 106c-30.72-59.7 69.5-76.465 106-53-18.5 1-34.466-2.129-50 8.5-12.906 8.83.35 27.065 6.315 36z" fill="#fff" stroke="#000" stroke-width="3"/></svg>