<svg width="323" height="169" fill="none" xmlns="http://www.w3.org/2000/svg"><path d="M287.471 122.549l-11.421 13.886 5.945 4.65 5.476-6.015 15.256 11.308 4.407-5.353-15.015-11.368 6.675-7.577 15.471 11.681 4.687-5.082-15.242-12.292 4.285-4.752-6.53-5.207-10.217 11.798c-14.229-13.628-27.928-28.553-41.274-29.711-7.06-12.211-27.981-15.69-31.85-10.866l-.08 10.625c7.221-9.038 18.851-4.263 24.769 1.313-5.633 2.913-14.094 9.96-12.918 19.317.835 6.648 11.649 15.847 20.902 6.033 3.348-3.551 4.652-7.118 2.434-17.864 13.934 3.335 25.817 17.496 34.24 25.476z" fill="#DCEDFF"/><path d="M245.308 97.525c3.075-1.255 4.816-1.195 7.923-.452m-7.923.452c-3.339 2.359-10.111 11.419-4.429 11.462 4.342.032 4.815-6.18 4.429-11.462zm42.163 37.545l-5.476 6.015-5.945-4.65 11.421-13.886c-8.423-7.98-20.306-22.141-34.24-25.476m34.24 37.997l15.256 11.308 4.407-5.353-15.015-11.368m-4.648 5.413l4.648-5.413m0 0l6.675-7.577m4.916-5.693l4.285-4.752-6.53-5.207-10.217 11.798c-14.229-13.628-27.928-28.553-41.274-29.711m53.736 27.872l15.242 12.292-4.687 5.082-15.471-11.681m4.916-5.693l-4.916 5.693m-45.563-25.007c2.218 10.746.914 14.313-2.434 17.864-9.253 9.814-20.067.615-20.902-6.033-1.176-9.358 7.285-16.404 12.918-19.317m0 0c-5.918-5.576-17.548-10.351-24.769-1.313l.08-10.625c3.869-4.824 24.79-1.345 31.85 10.866m-7.161 1.072c2.662-1.306 4.232-1.326 7.161-1.072" stroke="#000" stroke-width="3"/><path d="M246.445 97.15c-4.324 1.098-10.597 10.379-6.159 12.354 4.438 1.975 8.939-7.236 6.159-12.355z" fill="#DCEDFF" stroke="#000" stroke-width="3"/><path d="M217 140V22.125h-47.392V2H52.09v20.125H2v36.922s85.973 26.949 163.369 5c17.631-5 11.631 20.953 0 28.944C147.154 105.506 2 92.99 2 92.99V140h215z" fill="#FF8D7C" stroke="#000" stroke-width="3"/><ellipse cx="59.993" cy="9.35" rx="3.015" ry="2.821" transform="rotate(-.272 59.993 9.35)" fill="#000"/><ellipse cx="116.829" cy="9.08" rx="3.015" ry="2.821" transform="rotate(-.272 116.829 9.08)" fill="#000"/></svg>