<svg width="220" height="163" fill="none" xmlns="http://www.w3.org/2000/svg"><path d="M70 2h113.894v8.196h19.087l4.068 27.11h7.196L218 61.264h-22.529V37.306h-11.577v105.918h-46.265V161H99.404v-17.776H70v-32.469s42.519 6.228 63.205 0c27.222-8.196 42.241-85.428 0-73.45-19.879 5.638-63.205 0-63.205 0V2z" fill="#FFC554"/><path d="M183.894 10.196V2H70v35.306s43.326 5.637 63.205 0c42.241-11.979 27.222 65.253 0 73.449-20.686 6.228-63.205 0-63.205 0v32.469h29.404m84.49-133.028h19.087l4.068 27.11m-23.155-27.11v27.11m23.155 0h7.196L218 61.264h-22.529V37.306m11.578 0h-11.578m-11.577 0h11.577m-11.577 0v105.918h-46.265m0 0V161H99.404v-17.776m38.225 0H99.404" stroke="#000" stroke-width="3"/><circle cx="2.449" cy="2.449" r="2.449" transform="matrix(-1 0 0 1 136.143 9.739)" fill="#000"/><circle cx="2.449" cy="2.449" r="2.449" transform="matrix(-1 0 0 1 89.344 9.739)" fill="#000"/><path d="M1.051 107.495c10.302-2.91 16.102-16.76 29.339-24.972C44.909 73.516 119.5 61 139 106.5c-3 5.5-16.85 8.265-29.5 5.5-16-14.5-31.21-27.669-39.5-22-6.817 4.662-9.752 23.54-20.017 26.805l-48.932-9.31z" fill="#fff" stroke="#000" stroke-width="3"/></svg>